<svg version="1.1" viewBox="0 0 84.773 28.137" xmlns="http://www.w3.org/2000/svg">
 <g transform="translate(122.21 -143.79)" stroke-width="1px">
  <g transform="scale(1.004 .99601)" style="font-variant-caps:normal;font-variant-east-asian:normal;font-variant-ligatures:normal;font-variant-numeric:normal" aria-label="BRAD">
   <path d="m-118.18 152.67h1.4954q0.8024 0 1.3495 0.25531 0.5471 0.25531 0.5471 0.98477 0 0.83887-0.5471 1.1124-0.54709 0.27355-1.3495 0.27355h-1.4954zm0-4.7415h1.1489q1.5136 0 1.5136 1.1307 0 1.2036-1.5136 1.2036h-1.1489zm0-2.699h-3.5379v12.765h5.4709q2.4072 0 3.7749-0.82064 1.3677-0.82063 1.3677-2.7172 0-1.2766-0.72946-2.079-0.72945-0.8024-1.8054-1.2036 0.83887-0.4012 1.313-1.076 0.49238-0.67475 0.49238-1.6048 0-1.076-0.62003-1.8054-0.62004-0.72945-1.696-1.0942-1.0577-0.36473-2.4254-0.36473z"/>
   <path d="m-105.49 151.06v-2.8449h1.1854q0.85711 0 1.2948 0.36473 0.45591 0.36473 0.45591 1.0577t-0.45591 1.0577q-0.43767 0.36473-1.2948 0.36473zm0 2.7172h0.76593l2.4984 4.2126h4.1397l-3.1914-4.6868q1.2218-0.52886 1.8236-1.5136 0.6018-1.003 0.6018-2.2978 0-1.2583-0.56533-2.2066-0.54709-0.96653-1.696-1.5136-1.1307-0.54709-2.8814-0.54709h-5.0332v12.765h3.5379z"/>
   <path d="m-92.417 153.33 1.2583-2.8449 1.2401 2.8449zm-0.63827 2.626h3.7567l1.0759 2.0425h4.012l-6.9481-13.623-6.9845 13.623h4.0485z"/>
   <path d="m-80.545 157.99h2.3707q2.1519 0 3.7202-0.76593 1.5683-0.76593 2.4254-2.1884 0.85711-1.4407 0.85711-3.4284t-0.85711-3.4102q-0.85711-1.4407-2.4254-2.2066-1.5683-0.76593-3.7202-0.76593h-4.7779v12.765zm1.2765-3.1002v-6.5651h0.94829q0.83888 0 1.623 0.27355 0.8024 0.25531 1.2948 0.96653 0.51062 0.71121 0.51062 2.0425t-0.51062 2.0425q-0.49238 0.71122-1.2948 0.98476-0.78416 0.25531-1.623 0.25531z"/>
  </g>
  <g transform="scale(1.004 .99601)" style="font-variant-caps:normal;font-variant-east-asian:normal;font-variant-ligatures:normal;font-variant-numeric:normal" aria-label="TRELOAR">
   <path d="m-121.72 162.55h3.5743v9.5924h3.5561v-9.5924h3.5743v-3.1731h-10.705z"/>
   <path d="m-106.15 165.22v-2.8449h1.1854q0.85712 0 1.2948 0.36473 0.45591 0.36473 0.45591 1.0577t-0.45591 1.0577q-0.43767 0.36473-1.2948 0.36473zm0 2.7172h0.76593l2.4984 4.2126h4.1397l-3.1914-4.6868q1.2218-0.52886 1.8236-1.5136 0.6018-1.003 0.6018-2.2978 0-1.2583-0.56533-2.2066-0.54709-0.96653-1.696-1.5136-1.1306-0.54709-2.8814-0.54709h-5.0332v12.765h3.5379z"/>
   <path d="m-94.022 166.9h5.1062v-2.7719h-5.1062v-1.8601h5.4709v-2.8814h-8.8629v12.765h8.8629v-2.8814h-5.4709z"/>
   <path d="m-86.125 159.38v12.765h8.717v-3.0272h-5.1791v-9.7382z"/>
   <path d="m-73.597 165.76q0-1.5683 0.87535-2.5166 0.87535-0.96653 2.3525-0.96653 1.5319 0 2.3707 0.96653 0.85711 0.94829 0.85711 2.5166t-0.87535 2.5349q-0.87535 0.94829-2.3525 0.94829t-2.3525-0.94829q-0.87535-0.96653-0.87535-2.5349zm-3.7567 0q0 1.4954 0.51062 2.7537t1.4407 2.1884q0.94829 0.91182 2.2248 1.4224 1.2765 0.49239 2.8084 0.49239t2.8084-0.49239q1.2948-0.51061 2.2248-1.4224 0.93006-0.93006 1.4407-2.1884 0.52886-1.2583 0.52886-2.7537 0-1.4954-0.52886-2.7355-0.52886-1.2401-1.4771-2.1154-0.93006-0.89359-2.2066-1.3677-1.2765-0.49238-2.7902-0.49238-1.4771 0-2.7537 0.49238-1.2583 0.47414-2.2248 1.3677-0.94829 0.87535-1.4771 2.1154-0.52886 1.2401-0.52886 2.7355z"/>
   <path d="m-57.695 167.48 1.2583-2.8449 1.2401 2.8449zm-0.63827 2.626h3.7567l1.0759 2.0425h4.012l-6.9481-13.623-6.9845 13.623h4.0485z"/>
   <path d="m-44.692 165.22v-2.8449h1.1854q0.85711 0 1.2948 0.36473 0.45591 0.36473 0.45591 1.0577t-0.45591 1.0577q-0.43767 0.36473-1.2948 0.36473zm0 2.7172h0.76593l2.4984 4.2126h4.1397l-3.1914-4.6868q1.2218-0.52886 1.8236-1.5136 0.6018-1.003 0.6018-2.2978 0-1.2583-0.56533-2.2066-0.54709-0.96653-1.696-1.5136-1.1307-0.54709-2.8814-0.54709h-5.0332v12.765h3.5379z"/>
  </g>
 </g>
</svg>
